<?xml version="1.0" encoding="utf-8"?>
<!-- Generator: Adobe Illustrator 26.0.1, SVG Export Plug-In . SVG Version: 6.00 Build 0)  -->
<svg version="1.1" id="Layer_1" xmlns="http://www.w3.org/2000/svg" xmlns:xlink="http://www.w3.org/1999/xlink" x="0px" y="0px"
	 viewBox="0 0 28.35 28.35" style="enable-background:new 0 0 28.35 28.35;" xml:space="preserve">
<style type="text/css">
	.st0{fill:url(#SVGID_1_);}
	.st1{fill:url(#SVGID_00000075163711393826986590000011450894541688506761_);}
	.st2{fill:url(#SVGID_00000034775200876729196480000018219031874346117293_);}
	.st3{fill:url(#SVGID_00000111165988550407248430000003355992298232553398_);}
	.st4{fill:url(#SVGID_00000147910867087987358040000016338313159699281296_);}
	.st5{fill:url(#SVGID_00000049920412857656903500000008579553808033426341_);}
	.st6{fill:url(#SVGID_00000011731594394199967560000000872152569166405289_);}
	.st7{fill:url(#SVGID_00000071541730138547962350000011609320109005436310_);}
	.st8{fill:url(#SVGID_00000096031812152306568310000011700540886855595455_);}
</style>
<rect width="28.35" height="28.35"/>
<g>
	<g>
		<g>
			<g>
				<path d="M7.06,3.84c0.08,0.04,0.14,0.07,0.21,0.11C7.41,4.14,7.39,4.3,7.24,4.48C7.08,4.64,6.98,4.84,6.87,5.04
					C6.02,6.68,5.2,8.32,4.5,10.02c-0.09,0.2-0.16,0.41-0.21,0.65c0.03-0.03,0.06-0.04,0.09-0.07c0.27-0.24,0.53-0.49,0.78-0.74
					C5.4,9.63,5.6,9.35,5.8,9.08c0.33-0.43,0.71-0.84,1.07-1.24c0.53-0.6,1.09-1.18,1.6-1.8c0.24-0.29,0.46-0.58,0.71-0.86
					c0.19-0.22,0.38-0.42,0.58-0.63c0.06-0.06,0.11-0.12,0.18-0.17c0.16-0.11,0.3-0.29,0.54-0.16c0.29,0.14,0.53,0.31,0.51,0.67
					c-0.02,0.33-0.07,0.66-0.13,0.98c-0.11,0.61-0.23,1.22-0.39,1.81c-0.08,0.3-0.11,0.59-0.16,0.89c-0.02,0.1-0.01,0.21-0.01,0.34
					c0.31-0.15,0.55-0.33,0.76-0.54c0.57-0.55,1.15-1.11,1.69-1.69c1-1.05,1.98-2.13,2.97-3.19c0.16-0.18,0.34-0.34,0.53-0.51
					c0.14-0.11,0.25-0.28,0.46-0.3c0.14-0.02,0.28,0.01,0.31,0.03c0.16,0.1,0.29,0.17,0.36,0.36c0.1,0.28,0.1,0.57,0.03,0.85
					c-0.13,0.49-0.27,0.96-0.43,1.44C16.76,6,16.52,6.64,16.28,7.28c-0.01,0.04-1.98,5.89-2.52,7.9c-0.25,0.93-0.52,1.88-0.7,2.82
					c-0.16,0.85-0.32,1.69-0.47,2.54l-0.02,0.11c-0.21,0.52-0.18,1.07-0.22,1.6c-0.06,0.66-0.09,1.33-0.12,1.99
					c-0.01,0.18-0.04,0.35,0,0.53c0.07,0.23,0.2,0.4,0.42,0.43c0.22,0.03,0.29,0.26,0.29,0.39c-0.01,0.08-0.08,0.18-0.1,0.19
					c-0.32,0.2-0.67,0.03-0.95-0.2c-0.2-0.17-0.25-0.42-0.3-0.67c-0.13-0.68-0.1-1.38-0.03-2.06c0.17-1.97,0.53-3.92,0.95-5.85
					c0.31-1.45,0.66-2.88,1.13-4.29c0.29-0.88,0.58-1.76,0.87-2.63c0-0.01,0-0.02,0.01-0.03c0.31-0.59,0.42-1.25,0.68-1.86
					c0.25-0.61,0.48-1.23,0.71-1.86c0.27-0.75,0.52-1.53,0.77-2.29c0.05-0.14,0.07-0.29,0.05-0.46l-0.3,0.26
					c-0.2,0.19-0.33,0.37-0.51,0.57c-0.1,0.11-0.26,0.27-0.36,0.39c-0.58,0.66-1.16,1.32-1.76,1.97c-0.21,0.23-0.89,0.91-1,1.04
					c-0.12,0.14-0.87,0.84-1.07,1.08c-0.34,0.39-0.77,0.67-1.25,0.85c-0.12,0.05-0.39,0.01-0.51-0.05C9.63,9.53,9.65,9.52,9.63,9.16
					C9.62,8.98,9.62,8.79,9.64,8.6c0.1-0.84,0.29-1.67,0.47-2.5c0.07-0.27,0.11-0.54,0.18-0.86c-0.09,0.06-0.13,0.08-0.17,0.11
					c-0.2,0.22-0.39,0.45-0.6,0.66L8.29,7.32C8.18,7.44,8.09,7.57,8,7.7C7.72,8.13,7.39,8.49,7.05,8.87
					c-0.68,0.74-1.36,1.49-2.04,2.22c-0.22,0.24-0.47,0.45-0.73,0.65c-0.32,0.25-0.6,0.24-0.95-0.02c-0.09-0.33,0.02-0.65,0.12-0.96
					c0.46-1.4,1.1-2.71,1.74-4.02c0.38-0.78,0.79-1.55,1.19-2.32c0.07-0.14,0.15-0.28,0.24-0.42 M4.16,9.42L4.11,9.39
					c-0.17,0.34-0.33,0.67-0.45,1.02c-0.01,0.04,0.01,0.1,0.02,0.19L4.16,9.42z"/>
			</g>
			<g>
				<path d="M13.95,24.06c0.42-0.05,0.81-0.09,1.19-0.15c0.58-0.1,1.14-0.2,1.71-0.34c1.44-0.35,2.84-0.85,4.13-1.62
					c0.53-0.31,1.01-0.67,1.41-1.13c0.23-0.27,0.4-0.57,0.46-0.92c0.07-0.4-0.04-0.75-0.33-1.04c-0.35-0.37-0.79-0.64-1.24-0.88
					c-0.35-0.19-1.83-0.84-2.2-1c0.02-0.02-2.63-1.13-3.24-1.5c-0.57-0.35-0.82-0.83-0.89-0.97c-0.12-0.24-0.1-0.49,0.02-0.72
					c0.22-0.44,0.73-0.82,1.11-1.11c0.15-0.11,0.65-0.5,0.91-0.65c1.17-0.66,2.43-1.13,3.72-1.5c0.06-0.02,1.99-0.38,2.13-0.4
					c0.38-0.06,0.94-0.09,1.39-0.09c0.23-0.01,0.47,0.06,0.69,0.13c0.16,0.04,0.3,0.16,0.31,0.35c0,0.04,0.16,0.52,0.06,0.71
					c-0.14,0.29-0.34,0.54-0.63,0.7c-0.22-0.07-0.28-0.31-0.33-0.33c0.03-0.28,0.52-0.43,0.4-0.68c-0.16-0.33-1.43-0.16-1.97-0.08
					c-0.62,0.1-1.24,0.23-1.85,0.35c-0.07,0.01-1.15,0.38-1.28,0.42c-0.44,0.17-0.88,0.33-1.31,0.52c-0.42,0.18-0.84,0.4-1.26,0.6
					c0-0.02-0.78,0.55-0.91,0.65c-0.26,0.21-0.62,0.5-0.58,0.84c0.05,0.41,1.58,1.16,1.92,1.31c0.33,0.15,1.29,0.52,2.06,0.81
					c0.07,0.03,1.27,0.54,1.71,0.73c0.29,0.13,0.87,0.45,1.12,0.63c0.59,0.41,0.94,0.97,1.11,1.65c0.04,0.17,0.04,0.37,0.03,0.55
					c-0.04,0.64-0.39,1.13-0.84,1.56c-0.53,0.51-1.12,0.91-1.76,1.27c-1.24,0.71-2.57,1.2-3.95,1.56c-0.45,0.11-0.9,0.2-1.35,0.29
					c-0.04,0.02-1.56,0.2-1.84,0.21c-0.52,0.03-2.04,0.03-2.9-0.21c-0.17-0.04-0.34-0.1-0.49-0.2c-0.19-0.12-0.39-0.24-0.52-0.43
					c-0.21-0.3-0.29-0.65-0.25-0.92c0.05-0.33,0.33-0.73,0.58-1c0.51-0.55,1.05-1.07,1.68-1.49c0.58-0.38,1.16-0.73,1.8-0.98
					c0.28-0.11,0.57-0.19,0.87-0.22c0.07-0.01,0.59-0.04,0.87-0.03c0.12,0,0.33-0.03,0.45,0.08c0.01,0.02,0.18,0.33,0.19,0.46
					c0.01,0.11-0.1,0.16-0.21,0.15c-0.71-0.03-1.17,0.02-1.84,0.24c-0.62,0.21-1.13,0.47-1.4,0.62c-0.52,0.28-1.15,0.73-1.51,1.18
					c-0.03,0.04-0.79,0.98-0.81,1.04c-0.07,0.14-0.1,0.39,0.14,0.53c0.3,0.17,0.63,0.28,0.97,0.35c0.59,0.11,1.18,0.15,1.77,0.15"/>
			</g>
			<g>
				<g>
					<path d="M13.24,22.57c0.29-0.01,0.44,0.2,0.44,0.47c0.01,0.19-0.07,0.38-0.24,0.45l0.29,0.6l-0.32,0.01l-0.26-0.57l-0.07,0
						l0.02,0.58l-0.28,0.01l-0.06-1.53L13.24,22.57z M13.24,22.89l-0.17,0.01l0.01,0.38l0.17-0.01c0.11,0,0.15-0.08,0.15-0.2
						C13.39,22.95,13.34,22.88,13.24,22.89z"/>
				</g>
				<g>
					<path d="M15.03,22.69l-0.42,0.06l0.04,0.31L15.02,23l0.04,0.29l-0.38,0.05l0.05,0.33l0.42-0.06l0.04,0.3l-0.7,0.1l-0.22-1.52
						l0.7-0.1L15.03,22.69z"/>
				</g>
				<g>
					<path d="M16.59,23.35l-0.42,0.1l-0.01,0.28l-0.29,0.07l0.07-1.59l0.32-0.07l0.75,1.4l-0.29,0.07L16.59,23.35z M16.19,22.57
						l-0.02,0.58l0.28-0.06L16.19,22.57z"/>
				</g>
				<g>
					<path d="M17.17,21.9l0.86-0.26l0.09,0.29l-0.29,0.09l0.36,1.18l-0.27,0.08l-0.36-1.18l-0.29,0.09L17.17,21.9z"/>
				</g>
				<g>
					<path d="M18.59,21.43l0.26-0.1l0.56,1.43l-0.26,0.1L18.59,21.43z"/>
				</g>
				<g>
					<path d="M20.65,22.21c-0.29,0.15-0.68-0.01-0.89-0.42c-0.22-0.41-0.13-0.82,0.16-0.97c0.29-0.15,0.68,0.01,0.89,0.42
						C21.03,21.64,20.94,22.05,20.65,22.21z M20.49,21.9c0.16-0.09,0.19-0.3,0.06-0.54c-0.13-0.24-0.32-0.34-0.48-0.25
						c-0.17,0.09-0.19,0.3-0.06,0.54C20.14,21.89,20.33,21.99,20.49,21.9z"/>
				</g>
				<g>
					<path d="M21.53,19.53l1.16,1l-0.18,0.22l-1.03-0.26l0.72,0.61l-0.18,0.22l-1.16-1l0.18-0.21l1.03,0.26l-0.72-0.62L21.53,19.53z
						"/>
				</g>
			</g>
		</g>
		<g>
			<g>
				
					<linearGradient id="SVGID_1_" gradientUnits="userSpaceOnUse" x1="10.1713" y1="28.4259" x2="10.1713" y2="2.9319" gradientTransform="matrix(1 0 0 -1 0 28.754)">
					<stop  offset="0" style="stop-color:#924E3D"/>
					<stop  offset="0.0397" style="stop-color:#9D5A49"/>
					<stop  offset="0.0995" style="stop-color:#B47463"/>
					<stop  offset="0.154" style="stop-color:#C18371"/>
					<stop  offset="0.2657" style="stop-color:#E9B2A1"/>
					<stop  offset="0.2985" style="stop-color:#FBC5B4"/>
					<stop  offset="0.5025" style="stop-color:#F5B7A6"/>
					<stop  offset="1" style="stop-color:#956051"/>
				</linearGradient>
				<path class="st0" d="M6.85,3.63c0.08,0.04,0.14,0.07,0.21,0.11C7.2,3.92,7.18,4.09,7.02,4.27C6.87,4.43,6.77,4.63,6.66,4.83
					C5.81,6.46,4.99,8.11,4.28,9.81c-0.09,0.2-0.16,0.41-0.21,0.65c0.03-0.03,0.06-0.04,0.09-0.07c0.27-0.24,0.53-0.49,0.78-0.74
					c0.25-0.24,0.45-0.52,0.65-0.78C5.93,8.44,6.3,8.03,6.66,7.63c0.53-0.6,1.09-1.18,1.6-1.8C8.5,5.54,8.72,5.24,8.97,4.96
					c0.19-0.22,0.38-0.42,0.58-0.63c0.06-0.06,0.11-0.12,0.18-0.17C9.9,4.05,10.03,3.88,10.28,4c0.29,0.14,0.53,0.31,0.51,0.67
					C10.77,5,10.72,5.33,10.65,5.65c-0.11,0.61-0.23,1.22-0.39,1.81c-0.08,0.3-0.11,0.59-0.16,0.89c-0.02,0.1-0.01,0.21-0.01,0.34
					c0.31-0.15,0.55-0.33,0.76-0.54C11.43,7.6,12,7.05,12.54,6.46c1-1.05,1.98-2.13,2.97-3.19c0.16-0.18,0.34-0.34,0.53-0.51
					c0.14-0.11,0.25-0.28,0.46-0.3c0.14-0.02,0.28,0.01,0.32,0.03c0.16,0.1,0.29,0.17,0.36,0.36c0.1,0.28,0.1,0.57,0.03,0.85
					c-0.13,0.49-0.27,0.96-0.43,1.44c-0.22,0.64-0.47,1.28-0.71,1.92c-0.01,0.04-1.98,5.89-2.52,7.9c-0.25,0.93-0.52,1.88-0.7,2.82
					c-0.16,0.85-0.32,1.69-0.47,2.54l-0.02,0.11c-0.21,0.52-0.18,1.07-0.22,1.6c-0.06,0.66-0.09,1.33-0.12,1.99
					c-0.01,0.18-0.04,0.35,0,0.53c0.07,0.23,0.2,0.4,0.42,0.43c0.22,0.03,0.29,0.26,0.29,0.39c-0.01,0.08-0.08,0.18-0.1,0.19
					c-0.32,0.19-0.67,0.03-0.95-0.2c-0.2-0.17-0.25-0.42-0.3-0.67c-0.13-0.68-0.1-1.37-0.03-2.06c0.17-1.97,0.53-3.92,0.95-5.85
					c0.31-1.45,0.66-2.88,1.13-4.29c0.29-0.88,0.58-1.76,0.87-2.63c0-0.01,0-0.02,0.01-0.03c0.31-0.59,0.42-1.25,0.68-1.86
					c0.25-0.61,0.48-1.23,0.71-1.86c0.27-0.75,0.52-1.53,0.77-2.29c0.05-0.14,0.07-0.29,0.05-0.46l-0.3,0.26
					c-0.2,0.19-0.33,0.37-0.51,0.57c-0.11,0.11-0.26,0.27-0.36,0.39c-0.58,0.66-1.16,1.32-1.76,1.97c-0.21,0.23-0.89,0.91-1,1.04
					c-0.12,0.14-0.87,0.84-1.07,1.08c-0.34,0.39-0.77,0.67-1.25,0.85c-0.12,0.05-0.39,0.01-0.51-0.05C9.43,9.32,9.44,9.31,9.43,8.95
					C9.42,8.77,9.42,8.58,9.43,8.39c0.1-0.84,0.29-1.67,0.47-2.5c0.07-0.27,0.11-0.54,0.18-0.86C10,5.09,9.95,5.1,9.91,5.14
					c-0.2,0.22-0.39,0.45-0.6,0.66L8.08,7.11c-0.11,0.11-0.2,0.25-0.29,0.38C7.52,7.92,7.18,8.28,6.85,8.66
					C6.17,9.4,5.49,10.15,4.8,10.87c-0.22,0.24-0.47,0.45-0.73,0.65c-0.32,0.25-0.6,0.24-0.95-0.02c-0.09-0.33,0.02-0.65,0.12-0.96
					C3.7,9.15,4.34,7.83,4.98,6.52C5.36,5.74,5.77,4.97,6.17,4.2c0.07-0.14,0.15-0.28,0.24-0.42"/>
			</g>
			<g>
				
					<linearGradient id="SVGID_00000096034136096811670510000004087170746932669618_" gradientUnits="userSpaceOnUse" x1="17.234" y1="28.4287" x2="17.234" y2="3.0052" gradientTransform="matrix(1 0 0 -1 0 28.754)">
					<stop  offset="0" style="stop-color:#924E3D"/>
					<stop  offset="0.0397" style="stop-color:#9D5A49"/>
					<stop  offset="0.0995" style="stop-color:#B47463"/>
					<stop  offset="0.154" style="stop-color:#C18371"/>
					<stop  offset="0.2657" style="stop-color:#E9B2A1"/>
					<stop  offset="0.2985" style="stop-color:#FBC5B4"/>
					<stop  offset="0.5025" style="stop-color:#F5B7A6"/>
					<stop  offset="1" style="stop-color:#956051"/>
				</linearGradient>
				<path style="fill:url(#SVGID_00000096034136096811670510000004087170746932669618_);" d="M13.73,23.85
					c0.42-0.05,0.81-0.09,1.19-0.15c0.58-0.1,1.14-0.2,1.71-0.34c1.44-0.35,2.84-0.85,4.13-1.62c0.53-0.31,1.01-0.67,1.41-1.14
					c0.23-0.27,0.4-0.57,0.46-0.92c0.07-0.4-0.04-0.75-0.33-1.04c-0.35-0.37-0.79-0.64-1.24-0.88c-0.35-0.19-1.83-0.84-2.2-1
					c0.02-0.02-2.63-1.13-3.24-1.5c-0.57-0.35-0.82-0.83-0.89-0.97c-0.12-0.24-0.1-0.49,0.02-0.72c0.22-0.44,0.73-0.82,1.11-1.11
					c0.15-0.11,0.65-0.5,0.91-0.65c1.17-0.66,2.43-1.13,3.72-1.5c0.06-0.02,1.99-0.38,2.13-0.4c0.38-0.06,0.94-0.09,1.39-0.09
					c0.23-0.01,0.47,0.06,0.69,0.13c0.16,0.04,0.3,0.16,0.31,0.35c0,0.04,0.15,0.52,0.06,0.71c-0.14,0.29-0.34,0.54-0.63,0.71
					c-0.22-0.07-0.28-0.31-0.33-0.33c0.03-0.28,0.52-0.43,0.4-0.68c-0.16-0.33-1.43-0.16-1.97-0.08c-0.62,0.1-1.24,0.23-1.85,0.35
					c-0.07,0.01-1.15,0.38-1.28,0.42c-0.44,0.17-0.88,0.34-1.31,0.53c-0.42,0.18-0.84,0.4-1.26,0.6c0-0.02-0.78,0.55-0.91,0.65
					c-0.26,0.21-0.62,0.5-0.59,0.84c0.05,0.41,1.58,1.16,1.92,1.31c0.33,0.15,1.29,0.52,2.06,0.81c0.07,0.03,1.27,0.54,1.71,0.73
					c0.29,0.13,0.87,0.46,1.12,0.63c0.59,0.4,0.94,0.97,1.11,1.65c0.04,0.17,0.04,0.37,0.03,0.55c-0.04,0.64-0.39,1.13-0.84,1.56
					c-0.52,0.51-1.12,0.91-1.75,1.27c-1.24,0.71-2.57,1.2-3.95,1.56c-0.45,0.11-0.9,0.2-1.35,0.29c-0.04,0.02-1.56,0.2-1.84,0.22
					c-0.52,0.03-2.04,0.03-2.9-0.22c-0.17-0.04-0.34-0.1-0.49-0.2c-0.19-0.12-0.39-0.24-0.52-0.43c-0.21-0.3-0.29-0.65-0.25-0.92
					c0.05-0.33,0.33-0.73,0.58-1c0.51-0.55,1.05-1.07,1.68-1.49c0.58-0.38,1.16-0.73,1.8-0.98c0.28-0.11,0.57-0.19,0.87-0.22
					c0.07-0.01,0.59-0.04,0.87-0.03c0.12,0,0.33-0.03,0.45,0.08c0.01,0.02,0.18,0.33,0.19,0.46c0.01,0.11-0.1,0.15-0.21,0.15
					c-0.71-0.03-1.17,0.02-1.84,0.24c-0.62,0.21-1.13,0.47-1.4,0.62c-0.52,0.28-1.15,0.73-1.51,1.18c-0.03,0.04-0.79,0.98-0.81,1.04
					c-0.07,0.14-0.1,0.39,0.14,0.52c0.3,0.17,0.63,0.28,0.97,0.35c0.59,0.11,1.18,0.16,1.77,0.15"/>
			</g>
			<g>
				<g>
					
						<linearGradient id="SVGID_00000062890021167078145340000009199789321503646613_" gradientUnits="userSpaceOnUse" x1="13.0395" y1="28.4609" x2="13.0395" y2="2.9658" gradientTransform="matrix(1 0 0 -1 0 28.754)">
						<stop  offset="0" style="stop-color:#924E3D"/>
						<stop  offset="0.0397" style="stop-color:#9D5A49"/>
						<stop  offset="0.0995" style="stop-color:#B47463"/>
						<stop  offset="0.154" style="stop-color:#C18371"/>
						<stop  offset="0.2657" style="stop-color:#E9B2A1"/>
						<stop  offset="0.2985" style="stop-color:#FBC5B4"/>
						<stop  offset="0.5025" style="stop-color:#F5B7A6"/>
						<stop  offset="1" style="stop-color:#956051"/>
					</linearGradient>
					<path style="fill:url(#SVGID_00000062890021167078145340000009199789321503646613_);" d="M13.03,22.36
						c0.29-0.01,0.44,0.2,0.44,0.47c0.01,0.19-0.07,0.38-0.24,0.45l0.29,0.6l-0.32,0.01l-0.26-0.57l-0.07,0l0.02,0.58l-0.28,0.01
						l-0.06-1.53L13.03,22.36z M13.02,22.67l-0.18,0.01l0.01,0.38l0.17-0.01c0.11,0,0.15-0.08,0.15-0.2
						C13.18,22.74,13.13,22.67,13.02,22.67z"/>
				</g>
				<g>
					
						<linearGradient id="SVGID_00000146479555130398466350000008311390133722395030_" gradientUnits="userSpaceOnUse" x1="14.5262" y1="28.4466" x2="14.5262" y2="2.9678" gradientTransform="matrix(1 0 0 -1 0 28.754)">
						<stop  offset="0" style="stop-color:#924E3D"/>
						<stop  offset="0.0397" style="stop-color:#9D5A49"/>
						<stop  offset="0.0995" style="stop-color:#B47463"/>
						<stop  offset="0.154" style="stop-color:#C18371"/>
						<stop  offset="0.2657" style="stop-color:#E9B2A1"/>
						<stop  offset="0.2985" style="stop-color:#FBC5B4"/>
						<stop  offset="0.5025" style="stop-color:#F5B7A6"/>
						<stop  offset="1" style="stop-color:#956051"/>
					</linearGradient>
					<path style="fill:url(#SVGID_00000146479555130398466350000008311390133722395030_);" d="M14.81,22.47l-0.42,0.06l0.04,0.31
						l0.38-0.05l0.04,0.29l-0.38,0.05l0.05,0.33l0.42-0.06l0.04,0.3l-0.7,0.1l-0.22-1.52l0.7-0.1L14.81,22.47z"/>
				</g>
				<g>
					
						<linearGradient id="SVGID_00000095319792243401586300000004587397384407417479_" gradientUnits="userSpaceOnUse" x1="16.2249" y1="28.4555" x2="16.2249" y2="2.9666" gradientTransform="matrix(1 0 0 -1 0 28.754)">
						<stop  offset="0" style="stop-color:#924E3D"/>
						<stop  offset="0.0397" style="stop-color:#9D5A49"/>
						<stop  offset="0.0995" style="stop-color:#B47463"/>
						<stop  offset="0.154" style="stop-color:#C18371"/>
						<stop  offset="0.2657" style="stop-color:#E9B2A1"/>
						<stop  offset="0.2985" style="stop-color:#FBC5B4"/>
						<stop  offset="0.5025" style="stop-color:#F5B7A6"/>
						<stop  offset="1" style="stop-color:#956051"/>
					</linearGradient>
					<path style="fill:url(#SVGID_00000095319792243401586300000004587397384407417479_);" d="M16.38,23.14l-0.42,0.1l-0.01,0.28
						l-0.29,0.07l0.07-1.59l0.32-0.07l0.75,1.4l-0.29,0.07L16.38,23.14z M15.98,22.36l-0.02,0.58l0.28-0.06L15.98,22.36z"/>
				</g>
				<g>
					
						<linearGradient id="SVGID_00000088822474727850290710000011296879587539966374_" gradientUnits="userSpaceOnUse" x1="17.4641" y1="28.448" x2="17.4641" y2="2.9674" gradientTransform="matrix(1 0 0 -1 0 28.754)">
						<stop  offset="0" style="stop-color:#924E3D"/>
						<stop  offset="0.0397" style="stop-color:#9D5A49"/>
						<stop  offset="0.0995" style="stop-color:#B47463"/>
						<stop  offset="0.154" style="stop-color:#C18371"/>
						<stop  offset="0.2657" style="stop-color:#E9B2A1"/>
						<stop  offset="0.2985" style="stop-color:#FBC5B4"/>
						<stop  offset="0.5025" style="stop-color:#F5B7A6"/>
						<stop  offset="1" style="stop-color:#956051"/>
					</linearGradient>
					<path style="fill:url(#SVGID_00000088822474727850290710000011296879587539966374_);" d="M16.96,21.69l0.86-0.26l0.09,0.29
						l-0.29,0.09l0.36,1.18l-0.27,0.08l-0.36-1.18l-0.29,0.09L16.96,21.69z"/>
				</g>
				<g>
					
						<linearGradient id="SVGID_00000174580178923785188140000008123876473024195459_" gradientUnits="userSpaceOnUse" x1="18.7885" y1="28.4556" x2="18.7885" y2="2.9665" gradientTransform="matrix(1 0 0 -1 0 28.754)">
						<stop  offset="0" style="stop-color:#924E3D"/>
						<stop  offset="0.0397" style="stop-color:#9D5A49"/>
						<stop  offset="0.0995" style="stop-color:#B47463"/>
						<stop  offset="0.154" style="stop-color:#C18371"/>
						<stop  offset="0.2657" style="stop-color:#E9B2A1"/>
						<stop  offset="0.2985" style="stop-color:#FBC5B4"/>
						<stop  offset="0.5025" style="stop-color:#F5B7A6"/>
						<stop  offset="1" style="stop-color:#956051"/>
					</linearGradient>
					<path style="fill:url(#SVGID_00000174580178923785188140000008123876473024195459_);" d="M18.38,21.22l0.26-0.1l0.56,1.43
						l-0.26,0.1L18.38,21.22z"/>
				</g>
				<g>
					
						<linearGradient id="SVGID_00000083782152146528945030000015504868962421297308_" gradientUnits="userSpaceOnUse" x1="20.0733" y1="28.4498" x2="20.0733" y2="2.9674" gradientTransform="matrix(1 0 0 -1 0 28.754)">
						<stop  offset="0" style="stop-color:#924E3D"/>
						<stop  offset="0.0397" style="stop-color:#9D5A49"/>
						<stop  offset="0.0995" style="stop-color:#B47463"/>
						<stop  offset="0.154" style="stop-color:#C18371"/>
						<stop  offset="0.2657" style="stop-color:#E9B2A1"/>
						<stop  offset="0.2985" style="stop-color:#FBC5B4"/>
						<stop  offset="0.5025" style="stop-color:#F5B7A6"/>
						<stop  offset="1" style="stop-color:#956051"/>
					</linearGradient>
					<path style="fill:url(#SVGID_00000083782152146528945030000015504868962421297308_);" d="M20.44,21.99
						c-0.29,0.15-0.68-0.01-0.89-0.42c-0.22-0.41-0.13-0.82,0.16-0.97c0.29-0.16,0.68,0.01,0.89,0.42
						C20.81,21.43,20.73,21.84,20.44,21.99z M20.28,21.69c0.16-0.09,0.19-0.3,0.06-0.54c-0.13-0.24-0.32-0.34-0.48-0.25
						c-0.17,0.09-0.19,0.3-0.06,0.54C19.93,21.68,20.12,21.78,20.28,21.69z"/>
				</g>
				<g>
					
						<linearGradient id="SVGID_00000178168246769115480960000011210919351420972176_" gradientUnits="userSpaceOnUse" x1="21.562" y1="28.45" x2="21.562" y2="2.9673" gradientTransform="matrix(1 0 0 -1 0 28.754)">
						<stop  offset="0" style="stop-color:#924E3D"/>
						<stop  offset="0.0397" style="stop-color:#9D5A49"/>
						<stop  offset="0.0995" style="stop-color:#B47463"/>
						<stop  offset="0.154" style="stop-color:#C18371"/>
						<stop  offset="0.2657" style="stop-color:#E9B2A1"/>
						<stop  offset="0.2985" style="stop-color:#FBC5B4"/>
						<stop  offset="0.5025" style="stop-color:#F5B7A6"/>
						<stop  offset="1" style="stop-color:#956051"/>
					</linearGradient>
					<path style="fill:url(#SVGID_00000178168246769115480960000011210919351420972176_);" d="M21.32,19.32l1.16,0.99l-0.18,0.22
						l-1.03-0.25l0.72,0.61l-0.18,0.22l-1.16-0.99l0.18-0.22l1.03,0.26l-0.72-0.62L21.32,19.32z"/>
				</g>
			</g>
		</g>
	</g>
</g>
</svg>
